<mxfile host="Electron" modified="2023-05-09T05:51:06.790Z" agent="Mozilla/5.0 (Windows NT 10.0; Win64; x64) AppleWebKit/537.36 (KHTML, like Gecko) draw.io/21.2.8 Chrome/112.0.5615.165 Electron/24.2.0 Safari/537.36" etag="kzceh8cPvP7JnvPR-16j" version="21.2.8" type="device">
  <diagram name="Page-1" id="liQqkGE_RHtwgX_FPMdj">
    <mxGraphModel dx="1434" dy="907" grid="1" gridSize="10" guides="1" tooltips="1" connect="1" arrows="1" fold="1" page="1" pageScale="1" pageWidth="3300" pageHeight="4681" math="0" shadow="0">
      <root>
        <mxCell id="0" />
        <mxCell id="1" parent="0" />
        <mxCell id="dnpzEelc-P8lp6kNGuGQ-1" value="&lt;font style=&quot;font-size: 30px;&quot;&gt;math&lt;/font&gt;" style="rounded=0;whiteSpace=wrap;html=1;fillColor=#6a00ff;strokeColor=#3700CC;fontColor=#ffffff;" parent="1" vertex="1">
          <mxGeometry x="1770" y="220" width="220" height="110" as="geometry" />
        </mxCell>
        <mxCell id="dnpzEelc-P8lp6kNGuGQ-2" value="&lt;font style=&quot;font-size: 30px;&quot;&gt;stats&lt;/font&gt;" style="rounded=0;whiteSpace=wrap;html=1;fillColor=#1ba1e2;fontColor=#ffffff;strokeColor=#006EAF;" parent="1" vertex="1">
          <mxGeometry x="1770" y="450" width="220" height="120" as="geometry" />
        </mxCell>
        <mxCell id="dnpzEelc-P8lp6kNGuGQ-3" value="&lt;font style=&quot;font-size: 30px;&quot;&gt;rooster&lt;/font&gt;" style="rounded=0;whiteSpace=wrap;html=1;fillColor=#008a00;strokeColor=#005700;fontColor=#ffffff;" parent="1" vertex="1">
          <mxGeometry x="1770" y="670" width="220" height="110" as="geometry" />
        </mxCell>
        <mxCell id="dnpzEelc-P8lp6kNGuGQ-4" value="&lt;font style=&quot;font-size: 23px;&quot;&gt;PUBLIC&lt;/font&gt;" style="rounded=0;whiteSpace=wrap;html=1;fillColor=#76608a;strokeColor=#432D57;fontColor=#ffffff;" parent="1" vertex="1">
          <mxGeometry x="1100" y="220" width="120" height="60" as="geometry" />
        </mxCell>
        <mxCell id="dnpzEelc-P8lp6kNGuGQ-5" value="&lt;font style=&quot;font-size: 18px;&quot;&gt;INTERFACE&lt;/font&gt;" style="rounded=0;whiteSpace=wrap;html=1;fillColor=#647687;strokeColor=#314354;fontColor=#ffffff;" parent="1" vertex="1">
          <mxGeometry x="1100" y="330" width="120" height="60" as="geometry" />
        </mxCell>
        <mxCell id="dnpzEelc-P8lp6kNGuGQ-6" value="&lt;font style=&quot;font-size: 18px;&quot;&gt;PRIVATE&lt;/font&gt;" style="rounded=0;whiteSpace=wrap;html=1;fillColor=#6d8764;strokeColor=#3A5431;fontColor=#ffffff;" parent="1" vertex="1">
          <mxGeometry x="1100" y="440" width="120" height="60" as="geometry" />
        </mxCell>
        <mxCell id="dnpzEelc-P8lp6kNGuGQ-7" value="&lt;font style=&quot;font-size: 18px;&quot;&gt;target&lt;/font&gt;" style="rounded=0;whiteSpace=wrap;html=1;fillColor=#60a917;strokeColor=#2D7600;fontColor=#ffffff;" parent="1" vertex="1">
          <mxGeometry x="750" y="220" width="120" height="60" as="geometry" />
        </mxCell>
        <mxCell id="dnpzEelc-P8lp6kNGuGQ-8" value="&lt;font style=&quot;font-size: 18px;&quot;&gt;target&lt;/font&gt;" style="rounded=0;whiteSpace=wrap;html=1;fillColor=#6a00ff;strokeColor=#3700CC;fontColor=#ffffff;" parent="1" vertex="1">
          <mxGeometry x="750" y="330" width="120" height="60" as="geometry" />
        </mxCell>
        <mxCell id="dnpzEelc-P8lp6kNGuGQ-9" value="&lt;font style=&quot;font-size: 18px;&quot;&gt;target&lt;/font&gt;" style="rounded=0;whiteSpace=wrap;html=1;fillColor=#1ba1e2;strokeColor=#006EAF;fontColor=#ffffff;" parent="1" vertex="1">
          <mxGeometry x="750" y="440" width="120" height="60" as="geometry" />
        </mxCell>
        <mxCell id="dnpzEelc-P8lp6kNGuGQ-10" value="&lt;div style=&quot;color: rgb(212, 212, 212); background-color: rgb(30, 30, 30); font-family: Consolas, &amp;quot;Courier New&amp;quot;, monospace; font-weight: normal; font-size: 24px; line-height: 32px;&quot;&gt;&lt;div&gt;&lt;span style=&quot;color: #6a9955;&quot;&gt;# The stats library&lt;/span&gt;&lt;/div&gt;&lt;div&gt;&lt;span style=&quot;color: #569cd6;&quot;&gt;add_library&lt;/span&gt;&lt;span style=&quot;color: #d4d4d4;&quot;&gt;(libstats STATIC src/stats/stats.cpp)&lt;/span&gt;&lt;/div&gt;&lt;br&gt;&lt;div&gt;&lt;span style=&quot;color: #6a9955;&quot;&gt;#The executable target&lt;/span&gt;&lt;/div&gt;&lt;div&gt;&lt;span style=&quot;color: #569cd6;&quot;&gt;add_executable&lt;/span&gt;&lt;span style=&quot;color: #d4d4d4;&quot;&gt;(rooster src/main.cpp)&lt;/span&gt;&lt;/div&gt;&lt;div&gt;&lt;span style=&quot;color: #569cd6;&quot;&gt;&lt;/span&gt;&lt;br&gt;&lt;/div&gt;&lt;/div&gt;" style="text;whiteSpace=wrap;html=1;" parent="1" vertex="1">
          <mxGeometry x="340" y="650" width="640" height="200" as="geometry" />
        </mxCell>
        <mxCell id="dnpzEelc-P8lp6kNGuGQ-11" value="&lt;font style=&quot;font-size: 65px;&quot;&gt;CMake Target Dependencies&lt;/font&gt;" style="text;html=1;strokeColor=none;fillColor=none;align=center;verticalAlign=middle;whiteSpace=wrap;rounded=0;" parent="1" vertex="1">
          <mxGeometry x="70" y="100" width="550" height="120" as="geometry" />
        </mxCell>
        <mxCell id="dnpzEelc-P8lp6kNGuGQ-12" value="&lt;div style=&quot;color: rgb(212, 212, 212); background-color: rgb(30, 30, 30); font-family: Consolas, &amp;quot;Courier New&amp;quot;, monospace; font-weight: normal; font-size: 24px; line-height: 32px;&quot;&gt;&lt;div&gt;&lt;span style=&quot;color: #569cd6;&quot;&gt;cmake_minimum_required&lt;/span&gt;&lt;span style=&quot;color: #d4d4d4;&quot;&gt;(VERSION 3.20)&lt;/span&gt;&lt;/div&gt;&lt;br&gt;&lt;div&gt;&lt;span style=&quot;color: #569cd6;&quot;&gt;project&lt;/span&gt;&lt;span style=&quot;color: #d4d4d4;&quot;&gt;(Rooster)&lt;/span&gt;&lt;/div&gt;&lt;br&gt;&lt;div&gt;&lt;span style=&quot;color: #6a9955;&quot;&gt;# The math library&lt;/span&gt;&lt;/div&gt;&lt;div&gt;&lt;span style=&quot;color: #569cd6;&quot;&gt;add_library&lt;/span&gt;&lt;span style=&quot;color: #d4d4d4;&quot;&gt;(libmath STATIC src/maths/supermath.cpp)&lt;/span&gt;&lt;/div&gt;&lt;div&gt;&lt;span style=&quot;color: #569cd6;&quot;&gt;target_include_directories&lt;/span&gt;&lt;span style=&quot;color: #d4d4d4;&quot;&gt;(libmath PUBLIC &lt;/span&gt;&lt;span style=&quot;color: #569cd6;&quot;&gt;${CMAKE_CURRENT_SOURCE_DIR}&lt;/span&gt;&lt;span style=&quot;color: #d4d4d4;&quot;&gt;/src/maths/include)&lt;/span&gt;&lt;/div&gt;&lt;br&gt;&lt;div&gt;&lt;span style=&quot;color: #6a9955;&quot;&gt;# The stats library&lt;/span&gt;&lt;/div&gt;&lt;div&gt;&lt;span style=&quot;color: #569cd6;&quot;&gt;add_library&lt;/span&gt;&lt;span style=&quot;color: #d4d4d4;&quot;&gt;(libstats STATIC src/stats/stats.cpp)&lt;/span&gt;&lt;/div&gt;&lt;div&gt;&lt;span style=&quot;color: #569cd6;&quot;&gt;target_include_directories&lt;/span&gt;&lt;span style=&quot;color: #d4d4d4;&quot;&gt;(libstats PUBLIC &lt;/span&gt;&lt;span style=&quot;color: #569cd6;&quot;&gt;${CMAKE_CURRENT_SOURCE_DIR}&lt;/span&gt;&lt;span style=&quot;color: #d4d4d4;&quot;&gt;/src/stats/include)&lt;/span&gt;&lt;/div&gt;&lt;div&gt;&lt;span style=&quot;color: #569cd6;&quot;&gt;target_link_libraries&lt;/span&gt;&lt;span style=&quot;color: #d4d4d4;&quot;&gt;(libstats PRIVATE libmath)&lt;/span&gt;&lt;/div&gt;&lt;br&gt;&lt;div&gt;&lt;span style=&quot;color: #6a9955;&quot;&gt;#The executable target&lt;/span&gt;&lt;/div&gt;&lt;div&gt;&lt;span style=&quot;color: #569cd6;&quot;&gt;add_executable&lt;/span&gt;&lt;span style=&quot;color: #d4d4d4;&quot;&gt;(rooster src/main.cpp)&lt;/span&gt;&lt;/div&gt;&lt;div&gt;&lt;span style=&quot;color: #569cd6;&quot;&gt;target_link_libraries&lt;/span&gt;&lt;span style=&quot;color: #d4d4d4;&quot;&gt;(rooster PUBLIC libstats)&lt;/span&gt;&lt;/div&gt;&lt;/div&gt;" style="text;whiteSpace=wrap;html=1;" parent="1" vertex="1">
          <mxGeometry x="1910" y="1050" width="1180" height="520" as="geometry" />
        </mxCell>
        <mxCell id="dnpzEelc-P8lp6kNGuGQ-13" value="COMPILER FLAGS" style="rounded=0;whiteSpace=wrap;html=1;fillColor=#0050ef;fontColor=#ffffff;strokeColor=#001DBC;" parent="1" vertex="1">
          <mxGeometry x="2240" y="250" width="250" height="30" as="geometry" />
        </mxCell>
        <mxCell id="dnpzEelc-P8lp6kNGuGQ-14" value="INCLUDE PATH" style="rounded=0;whiteSpace=wrap;html=1;fillColor=#1ba1e2;fontColor=#ffffff;strokeColor=#006EAF;" parent="1" vertex="1">
          <mxGeometry x="2240" y="300" width="250" height="30" as="geometry" />
        </mxCell>
        <mxCell id="dnpzEelc-P8lp6kNGuGQ-15" value="DEFINES" style="rounded=0;whiteSpace=wrap;html=1;fillColor=#60a917;fontColor=#ffffff;strokeColor=#2D7600;" parent="1" vertex="1">
          <mxGeometry x="2240" y="210" width="250" height="30" as="geometry" />
        </mxCell>
        <mxCell id="dnpzEelc-P8lp6kNGuGQ-17" value="&lt;font style=&quot;font-size: 30px;&quot;&gt;OWNER&lt;/font&gt;" style="rounded=0;whiteSpace=wrap;html=1;fillColor=#1ba1e2;strokeColor=#006EAF;fontColor=#ffffff;" parent="1" vertex="1">
          <mxGeometry x="2290" y="500" width="180" height="60" as="geometry" />
        </mxCell>
        <mxCell id="dnpzEelc-P8lp6kNGuGQ-18" value="&lt;font style=&quot;font-size: 30px;&quot;&gt;CONSUMER&lt;/font&gt;" style="rounded=0;whiteSpace=wrap;html=1;fillColor=#008a00;strokeColor=#005700;fontColor=#ffffff;" parent="1" vertex="1">
          <mxGeometry x="2290" y="640" width="180" height="60" as="geometry" />
        </mxCell>
        <mxCell id="dnpzEelc-P8lp6kNGuGQ-19" value="&lt;b&gt;[PUBLIC,INTERFACE,PRIVATE]&lt;/b&gt;" style="text;html=1;strokeColor=none;fillColor=none;align=center;verticalAlign=middle;whiteSpace=wrap;rounded=0;" parent="1" vertex="1">
          <mxGeometry x="2500" y="650" width="210" height="30" as="geometry" />
        </mxCell>
        <mxCell id="dnpzEelc-P8lp6kNGuGQ-20" value="&lt;b&gt;[PUBLIC,INTERFACE,PRIVATE]&lt;/b&gt;" style="text;html=1;strokeColor=none;fillColor=none;align=center;verticalAlign=middle;whiteSpace=wrap;rounded=0;" parent="1" vertex="1">
          <mxGeometry x="2500" y="520" width="210" height="30" as="geometry" />
        </mxCell>
      </root>
    </mxGraphModel>
  </diagram>
</mxfile>
